<?xml version="1.0" encoding="iso-8859-1"?>
<!-- Generator: Adobe Illustrator 19.0.0, SVG Export Plug-In . SVG Version: 6.00 Build 0)  -->
<svg version="1.1" id="Capa_1" xmlns="http://www.w3.org/2000/svg" xmlns:xlink="http://www.w3.org/1999/xlink" x="0px" y="0px"
	 viewBox="0 0 480 480" style="enable-background:new 0 0 480 480;" xml:space="preserve">
<path style="fill:#2488FF;" d="M432,392H48v80h384V392z M272,440H96H272z"/>
<g>
	<path style="fill:#E0E0E2;" d="M432,376L400,8H80L48,376v16h384V376z M309.984,176.256c4.276-1.112,8.644,1.453,9.756,5.729
		c1.112,4.276-1.453,8.644-5.729,9.756c-4.274,1.112-8.641-1.451-9.755-5.725c-1.114-4.275,1.448-8.645,5.724-9.759
		C309.981,176.257,309.983,176.256,309.984,176.256z M208,296h32c17.673,0,32-14.327,32-32c0,17.673-14.327,32-32,32H208
		c-17.673,0-32-14.327-32-32v-96c0-17.673,14.327-32,32-32h32c17.673,0,32,14.327,32,32c0-17.673-14.327-32-32-32h-32
		c-17.673,0-32,14.327-32,32v96C176,281.673,190.327,296,208,296z M312,256c-4.418,0-8-3.582-8-8s3.582-8,8-8s8,3.582,8,8
		S316.418,256,312,256z"/>
	<path style="fill:#E0E0E2;" d="M314.016,191.744c4.275-1.114,6.838-5.483,5.724-9.759c-1.114-4.275-5.483-6.838-9.759-5.724
		c-4.274,1.114-6.837,5.48-5.725,9.755c1.112,4.276,5.48,6.841,9.756,5.729C314.013,191.745,314.015,191.744,314.016,191.744z"/>
	<circle style="fill:#E0E0E2;" cx="312" cy="248" r="8"/>
</g>
<g>
	<path style="fill:#231F20;" d="M280,416h-16v16H104v-16H88v32h192V416z"/>
	<path style="fill:#231F20;" d="M440,375.304l-32-368c-0.362-4.144-3.84-7.32-8-7.304H80c-4.16-0.016-7.638,3.16-8,7.304L40,376v96
		c0,4.418,3.582,8,8,8h384c4.418,0,8-3.582,8-8V375.304z M87.336,16h305.328L424,376v8H56v-7.304L87.336,16z M424,464H56v-64h368
		V464z"/>
	<path style="fill:#231F20;" d="M368,424h32v16h-32V424z"/>
	<path style="fill:#231F20;" d="M328,424h32v16h-32V424z"/>
	<path style="fill:#231F20;" d="M240,304h-32c-22.08-0.026-39.974-17.92-40-40v-96c0.026-22.08,17.92-39.974,40-40h32
		c22.08,0.026,39.974,17.92,40,40h-16c0-13.255-10.745-24-24-24h-32c-13.255,0-24,10.745-24,24v96c0,13.255,10.745,24,24,24h32
		c13.255,0,24-10.745,24-24h16C279.974,286.08,262.08,303.974,240,304z"/>
	<path style="fill:#231F20;" d="M312,200c-8.837,0.011-16.009-7.143-16.02-15.98s7.143-16.009,15.98-16.02
		c7.303-0.009,13.686,4.928,15.512,12c2.196,8.545-2.917,17.261-11.448,19.512C314.708,199.842,313.356,200.006,312,200z"/>
	<path style="fill:#231F20;" d="M312,264c-8.837,0-16-7.163-16-16c0-8.837,7.163-16,16-16s16,7.163,16,16
		C328,256.837,320.837,264,312,264z"/>
</g>
<g>
</g>
<g>
</g>
<g>
</g>
<g>
</g>
<g>
</g>
<g>
</g>
<g>
</g>
<g>
</g>
<g>
</g>
<g>
</g>
<g>
</g>
<g>
</g>
<g>
</g>
<g>
</g>
<g>
</g>
</svg>
